Star Trek: The Wrath of Khan (1982)       
 
 
  Verenigde Staten
Actie / Science-Fiction
113 minuten

geregisseerd door Nicholas Meyer
met William Shatner, Leonard Nimoy en DeForest Kelly

Admiral James T. Kirk is inmiddels een Starfleet Academy instructeur. Het leven achter een bureau bevalt hem echter maar matig. Dr. McCoy and Mr. Spock overtuigen hem ervan om een simpel klinkende missie aan te nemen, maar met de verschijning van de mysterieuze Khan wordt het erg gevaarlijk.

 
English

Storyline
Admiral James T. Kirk is still in charge of a space fleet, but from behind a desk. Dr. McCoy and Mr. Spock convince him to take on a mission which sounds simple, but with the appearance of the mysterious Khan, things get a little tricky. 


Categorie : Beeld 
Formaat : x264HD 
Bron : Retail
 
Ondertitels : Nederlands (instelbaar)
 
Genre : Science Fiction

Format                           : Matroska
File size                        : 7.51 GiB
Duration                         : 1h 53mn
Overall bit rate                 : 9 510 Kbps
Movie name                       : Star Trek II: The Wrath of Khan
Encoded date                     : UTC 2010-07-29 20:16:38
Writing application              : mkvmerge v4.1.1 ('Bouncin' Back') gemaakt op Jul  3 2010 22:54:08
Writing library                  : libebml v1.0.0 + libmatroska v1.0.0

Video
ID                               : 1
Format                           : AVC
Format/Info                      : Advanced Video Codec
Format profile                   : High@L4.1
Format settings, CABAC           : Yes
Format settings, ReFrames        : 3 frames
Muxing mode                      : Container profile=Unknown@0.0
Codec ID                         : V_MPEG4/ISO/AVC
Duration                         : 1h 53mn
Bit rate mode                    : Variable
Bit rate                         : 8 876 Kbps
Maximum bit rate                 : 24.0 Mbps
Width                            : 1 920 pixels
Height                           : 1 080 pixels
Display aspect ratio             : 16:9
Frame rate                       : 23.976 fps
Color space                      : YUV
Chroma subsampling               : 4:2:0
Bit depth                        : 8 bits
Scan type                        : Progressive
Bits/(Pixel*Frame)               : 0.179
Stream size                      : 6.85 GiB (91%)
Writing library                  : x264 core 104 r1683 62997d6
Encoding settings                : cabac=1 / ref=4 / deblock=1:-1:-1 / analyse=0x3:0x133 / me=umh / subme=10 / psy=1 / psy_rd=1.00:0.15 / mixed_ref=1 / me_range=24 / chroma_me=1 / trellis=2 / 8x8dct=1 / cqm=0 / deadzone=21,11 / fast_pskip=1 / chroma_qp_offset=-3 / threads=12 / sliced_threads=0 / slices=4 / nr=0 / decimate=1 / interlaced=0 / constrained_intra=0 / bframes=3 / b_pyramid=1 / b_adapt=2 / b_bias=0 / direct=3 / weightb=1 / open_gop=2 / weightp=2 / keyint=24 / keyint_min=2 / scenecut=40 / intra_refresh=0 / rc_lookahead=24 / rc=2pass / mbtree=1 / bitrate=8876 / ratetol=1.0 / qcomp=0.60 / qpmin=10 / qpmax=51 / qpstep=4 / cplxblur=20.0 / qblur=0.5 / vbv_maxrate=24000 / vbv_bufsize=24000 / ip_ratio=1.40 / aq=1:1.00 / nal_hrd=vbr
Color primaries                  : BT.709-5, BT.1361, IEC 61966-2-4, SMPTE RP177
Transfer characteristics         : BT.709-5, BT.1361
Matrix coefficients              : BT.709-5, BT.1361, IEC 61966-2-4 709, SMPTE RP177

Audio
ID                               : 2
Format                           : AC-3
Format/Info                      : Audio Coding 3
Mode extension                   : CM (complete main)
Muxing mode                      : Header stripping
Codec ID                         : A_AC3
Duration                         : 1h 53mn
Bit rate mode                    : Constant
Bit rate                         : 640 Kbps
Channel(s)                       : 6 channels
Channel positions                : Front: L C R, Side: L R, LFE
Sampling rate                    : 48.0 KHz
Bit depth                        : 16 bits
Stream size                      : 517 MiB (7%)
Language                         : English

Text
ID                               : 3
Format                           : UTF-8
Codec ID                         : S_TEXT/UTF8
Codec ID/Info                    : UTF-8 Plain Text
Language                         : Dutch

Menu
00:00:00.000                     : en:00:00:00.000
00:02:58.637                     : en:00:02:58.637
00:07:43.630                     : en:00:07:43.630
00:11:41.284                     : en:00:11:41.284
00:25:26.775                     : en:00:25:26.775
00:30:57.147                     : en:00:30:57.147
00:41:32.198                     : en:00:41:32.198
00:46:34.000                     : en:00:46:34.000
00:56:07.406                     : en:00:56:07.406
01:05:34.722                     : en:01:05:34.722
01:10:53.332                     : en:01:10:53.332
01:15:57.678                     : en:01:15:57.678
01:18:06.223                     : en:01:18:06.223
01:23:15.282                     : en:01:23:15.282
01:28:38.897                     : en:01:28:38.897
01:35:19.464                     : en:01:35:19.464
01:47:33.405                     : en:01:47:33.405
 
Weblink :  http://www.moviemeter.nl/film/3189 
Weblink :  http://www.imdb.com/title/tt0084726
 
 
*****************************************

Brought to you by 
2Lions Team

meer zien??
Kom dan eens kijken op ons Forum 
                          
http://www.2lions-site.nl  

2Lions the site to be for all your Dutch MOVIES and more

******************************************


DON T HIT AND RUN Niet gelijk afhaken als de FILM binnen is blijf seeden. 

Don`t quit after you finished the download, but keep seeding


There are fake torrents from uploaders who use our team name.
Those are not ours, or members from our team.
We 2Lions-Team are not responsible for the fake posts on our name

Wij 2Lions-Team zijn niet verantwoordelijk voor die zieke FAKE posten die op onze naam worden gedaan

Please check our site !!!
To the fakers Get a Live
 
 

 
